<svg id="Capa_1" enable-background="new 0 0 512 512" height="512" viewBox="0 0 512 512" width="512" xmlns="http://www.w3.org/2000/svg" xmlns:xlink="http://www.w3.org/1999/xlink"><linearGradient id="SVGID_1_" gradientUnits="userSpaceOnUse" x1="74.981" x2="420.096" y1="437.02" y2="91.904"><stop offset="0" stop-color="#008a4c"/><stop offset="1" stop-color="#d3ff33"/></linearGradient><radialGradient id="SVGID_2_" cx="204.282" cy="303.155" gradientUnits="userSpaceOnUse" r="334.159"><stop offset="0" stop-color="#008a4c" stop-opacity=".5"/><stop offset=".0109" stop-color="#048c4c" stop-opacity=".495"/><stop offset=".2144" stop-color="#42af44" stop-opacity=".393"/><stop offset=".4092" stop-color="#76cb3e" stop-opacity=".295"/><stop offset=".5903" stop-color="#9ee239" stop-opacity=".205"/><stop offset=".7546" stop-color="#bbf236" stop-opacity=".123"/><stop offset=".8965" stop-color="#cdfc34" stop-opacity=".052"/><stop offset="1" stop-color="#d3ff33" stop-opacity="0"/></radialGradient><linearGradient id="lg1"><stop offset="0" stop-color="#006946"/><stop offset=".2513" stop-color="#008547"/><stop offset=".3421" stop-color="#128f45"/><stop offset=".5244" stop-color="#41aa41"/><stop offset=".7788" stop-color="#8cd63a"/><stop offset="1" stop-color="#d3ff33"/></linearGradient><linearGradient id="SVGID_3_" gradientUnits="userSpaceOnUse" x1="-103.902" x2="998.837" xlink:href="#lg1" y1="787.16" y2="-315.579"/><linearGradient id="SVGID_4_" gradientTransform="matrix(.707 .707 -.707 .707 -6235.24 5266.204)" gradientUnits="userSpaceOnUse" x1="1077.053" x2="1077.053" xlink:href="#lg1" y1="-7911.843" y2="-8730.172"/><linearGradient id="SVGID_5_" gradientTransform="matrix(-.707 -.707 .707 -.707 256 618.039)" gradientUnits="userSpaceOnUse" x1="273.252" x2="273.252" xlink:href="#lg1" y1="-122.537" y2="873.242"/><linearGradient id="lg2"><stop offset="0" stop-color="#ddff59"/><stop offset="1" stop-color="#fff"/></linearGradient><linearGradient id="SVGID_6_" gradientTransform="matrix(.707 .707 -.707 .707 -6235.24 5266.204)" gradientUnits="userSpaceOnUse" x1="1100.986" x2="1100.986" xlink:href="#lg2" y1="-7607.643" y2="-9069.281"/><linearGradient id="SVGID_7_" gradientUnits="userSpaceOnUse" x1="-12.73" x2="1297.249" xlink:href="#lg1" y1="601.268" y2="-708.711"/><linearGradient id="SVGID_8_" gradientTransform="matrix(.707 .707 -.707 .707 -6235.24 5266.204)" gradientUnits="userSpaceOnUse" x1="1020.412" x2="1020.412" xlink:href="#lg2" y1="-7249.333" y2="-8243.757"/><linearGradient id="SVGID_9_" gradientUnits="userSpaceOnUse" x1="-410.859" x2="669.542" xlink:href="#lg1" y1="846.32" y2="-234.08"/><linearGradient id="SVGID_10_" gradientTransform="matrix(.707 .707 .707 -.707 -1404.641 435.605)" gradientUnits="userSpaceOnUse" x1="1047.336" x2="1047.336" xlink:href="#lg1" y1="870.347" y2="2007.327"/><linearGradient id="SVGID_11_" gradientUnits="userSpaceOnUse" x1="-88.591" x2="689.653" xlink:href="#lg1" y1="600.591" y2="-177.653"/><g><path d="m496.636 168.444-153.08-153.08c-27.316-9.941-56.803-15.364-87.556-15.364-141.385 0-256 114.615-256 256s114.615 256 256 256c82.656 0 156.164-39.173 202.969-99.967l19.884-29.955c21.1-37.216 33.147-80.24 33.147-126.078 0-30.753-5.423-60.24-15.364-87.556z" fill="url(#SVGID_1_)"/><path d="m496.636 168.444-153.08-153.08c-27.316-9.941-56.803-15.364-87.556-15.364-141.385 0-256 114.615-256 256s114.615 256 256 256c82.656 0 156.164-39.173 202.969-99.967l19.884-29.955c21.1-37.216 33.147-80.24 33.147-126.078 0-30.753-5.423-60.24-15.364-87.556z" fill="url(#SVGID_2_)"/><path d="m478.84 382.071h-365.372v29.951h345.487c7.299-9.481 13.951-19.484 19.885-29.951z" fill="url(#SVGID_3_)"/><path d="m207.741 304.259c-34.815 34.816-69.49 69.49-103.72 103.72 3.331 3.329 8.327 4.997 13.437 3.479 32.17-9.617 64.432-19.438 96.763-29.386-2.174-25.942-4.338-51.879-6.48-77.813z" fill="url(#SVGID_4_)"/><path d="m100.543 394.541c-1.518 5.109.148 10.104 3.479 13.438 1.404 1.404 4.474 1.139 8.541-1.422 25.646-16.152 51.428-32.484 77.294-48.916 5.932-17.781 11.899-35.576 17.885-53.381-25.934-2.142-51.871-4.306-77.812-6.48-9.95 32.329-19.771 64.592-29.387 96.761z" fill="url(#SVGID_5_)"/><path d="m322.373 189.627c-44.076 55.9-88.581 112.167-132.517 168.013 8.13 8.143 16.254 16.288 24.366 24.431 32.658-10.051 65.386-20.233 98.16-30.467 3.458-54.009 6.811-108.002 9.991-161.977z" fill="url(#SVGID_6_)"/><path d="m468.792 113.647c-37.379 13.743-74.913 27.821-112.559 42.12-18.028 43.464-36.336 87.082-54.676 130.75 2.503 2.504 4.023 5.988 3.926 9.827-.299 11.873-.603 23.746-.912 35.619-.2 7.679 2.825 14.647 7.81 19.64 61.57-61.668 123.537-123.268 184.249-183.158-7.089-19.479-16.479-37.853-27.838-54.798z" fill="url(#SVGID_7_)"/><path d="m322.373 189.627c-53.974 3.179-107.968 6.533-161.977 9.991-10.234 32.774-20.416 65.502-30.467 98.16 19.981 19.906 39.976 39.879 59.927 59.862 37.11-23.58 74.394-47.366 111.701-71.123 6.983-32.316 13.939-64.616 20.816-96.89z" fill="url(#SVGID_8_)"/><path d="m398.353 43.208c-16.945-11.358-35.318-20.749-54.799-27.838-59.89 60.712-121.49 122.678-183.158 184.249 4.993 4.985 11.963 8.011 19.64 7.81 11.873-.31 23.747-.614 35.62-.912 3.839-.096 7.324 1.424 9.827 3.926 43.668-18.339 87.287-36.648 130.75-54.676 14.298-37.646 28.377-75.18 42.12-112.559z" fill="url(#SVGID_9_)"/><path d="m258.078 177.816c-10.853 10.871-21.721 21.749-32.595 32.626 2.503 2.503 4.024 5.992 3.929 9.832-.292 11.878-.581 23.757-.867 35.635-.37 15.362 12.187 27.915 27.546 27.546 11.878-.286 23.756-.575 35.635-.867 3.84-.095 7.328 1.426 9.832 3.929 36.257-36.246 72.53-72.428 108.478-108.206-50.653-.325-101.306-.49-151.958-.495z" fill="url(#SVGID_10_)"/><path d="m394.566 40.716c-44.764 45.096-90.486 91.023-136.488 137.101 41.987 42.11 110.194 42.048 151.957.495 20.547-20.45 40.979-40.756 61.249-60.877-19.807-30.713-46.006-56.911-76.718-76.719z" fill="url(#SVGID_11_)"/></g></svg>